<svg width="64" height="64" viewBox="0 0 64 64" fill="none" xmlns="http://www.w3.org/2000/svg">
  <defs>
    <linearGradient id="gmb-body" x1="32" y1="24" x2="32" y2="60" gradientUnits="userSpaceOnUse">
      <stop stop-color="#4285F4"/>
      <stop offset="1" stop-color="#1266D6"/>
    </linearGradient>
    <linearGradient id="gmb-awning" x1="32" y1="12" x2="32" y2="30" gradientUnits="userSpaceOnUse">
      <stop stop-color="#5DA4FF"/>
      <stop offset="1" stop-color="#2F6BDE"/>
    </linearGradient>
  </defs>
  <rect x="8" y="24" width="48" height="32" rx="8" fill="url(#gmb-body)"/>
  <path d="M10 12C10 9.79086 11.7909 8 14 8H50C52.2091 8 54 9.79086 54 12V26C54 27.1046 53.1046 28 52 28H12C10.8954 28 10 27.1046 10 26V12Z" fill="url(#gmb-awning)"/>
  <path d="M12 24C12 24 14 32 20 32C26 32 28 24 28 24C28 24 30 32 36 32C42 32 44 24 44 24C44 24 46 32 52 32C53.1046 32 54 31.1046 54 30V24H12Z" fill="#2F6BDE"/>
  <text x="32" y="51" text-anchor="middle" font-family="Poppins, 'Segoe UI', sans-serif" font-weight="700" font-size="20" fill="white">G</text>
</svg>
